<svg width="32" height="32" viewBox="0 0 32 32" fill="none" xmlns="http://www.w3.org/2000/svg">
  <defs>
    <linearGradient id="bg" x1="0%" y1="0%" x2="100%" y2="100%">
      <stop offset="0%" style="stop-color:#667eea"/>
      <stop offset="100%" style="stop-color:#764ba2"/>
    </linearGradient>
    <linearGradient id="wave" x1="0%" y1="0%" x2="100%" y2="100%">
      <stop offset="0%" style="stop-color:#f093fb"/>
      <stop offset="100%" style="stop-color:#f5576c"/>
    </linearGradient>
  </defs>
  
  <!-- 背景 -->
  <rect width="32" height="32" rx="6" fill="url(#bg)"/>
  
  <!-- 麦克风 -->
  <rect x="13" y="8" width="6" height="10" rx="3" fill="white"/>
  <line x1="16" y1="18" x2="16" y2="22" stroke="white" stroke-width="2"/>
  <line x1="13" y1="22" x2="19" y2="22" stroke="white" stroke-width="2"/>
  
  <!-- 网格 -->
  <line x1="14.5" y1="10" x2="17.5" y2="10" stroke="url(#bg)" stroke-width="0.5"/>
  <line x1="14.5" y1="12" x2="17.5" y2="12" stroke="url(#bg)" stroke-width="0.5"/>
  <line x1="14.5" y1="14" x2="17.5" y2="14" stroke="url(#bg)" stroke-width="0.5"/>
  <line x1="14.5" y1="16" x2="17.5" y2="16" stroke="url(#bg)" stroke-width="0.5"/>
  
  <!-- 波形 -->
  <path d="M6 16 L7 14 L8 18 L9 12 L10 20" stroke="url(#wave)" stroke-width="1.5" fill="none"/>
  <path d="M22 16 L23 14 L24 18 L25 12 L26 20" stroke="url(#wave)" stroke-width="1.5" fill="none"/>
  
  <!-- 声波 -->
  <path d="M20 13 Q22 16 20 19" stroke="white" stroke-width="1" fill="none" opacity="0.8"/>
  <path d="M12 13 Q10 16 12 19" stroke="white" stroke-width="1" fill="none" opacity="0.8"/>
</svg>
