<svg width="32" height="32" viewBox="0 0 32 32" fill="none" xmlns="http://www.w3.org/2000/svg">
  <defs>
    <linearGradient id="gradient1" x1="0%" y1="0%" x2="100%" y2="100%">
      <stop offset="0%" style="stop-color:#667eea;stop-opacity:1" />
      <stop offset="100%" style="stop-color:#764ba2;stop-opacity:1" />
    </linearGradient>
    <linearGradient id="gradient2" x1="0%" y1="0%" x2="100%" y2="100%">
      <stop offset="0%" style="stop-color:#f093fb;stop-opacity:1" />
      <stop offset="100%" style="stop-color:#f5576c;stop-opacity:1" />
    </linearGradient>
  </defs>
  
  <!-- 背景圆形 -->
  <circle cx="16" cy="16" r="15" fill="url(#gradient1)" stroke="white" stroke-width="2"/>
  
  <!-- 麦克风主体 -->
  <rect x="13" y="8" width="6" height="10" rx="3" fill="white"/>
  
  <!-- 麦克风网格 -->
  <line x1="14.5" y1="10" x2="17.5" y2="10" stroke="url(#gradient1)" stroke-width="0.5"/>
  <line x1="14.5" y1="12" x2="17.5" y2="12" stroke="url(#gradient1)" stroke-width="0.5"/>
  <line x1="14.5" y1="14" x2="17.5" y2="14" stroke="url(#gradient1)" stroke-width="0.5"/>
  <line x1="14.5" y1="16" x2="17.5" y2="16" stroke="url(#gradient1)" stroke-width="0.5"/>
  
  <!-- 麦克风支架 -->
  <path d="M 16 18 L 16 22" stroke="white" stroke-width="2" stroke-linecap="round"/>
  <path d="M 13 22 L 19 22" stroke="white" stroke-width="2" stroke-linecap="round"/>
  
  <!-- 音频波形 -->
  <path d="M 6 16 L 7 14 L 8 18 L 9 12 L 10 20" stroke="url(#gradient2)" stroke-width="1.5" stroke-linecap="round" stroke-linejoin="round" fill="none"/>
  <path d="M 22 16 L 23 14 L 24 18 L 25 12 L 26 20" stroke="url(#gradient2)" stroke-width="1.5" stroke-linecap="round" stroke-linejoin="round" fill="none"/>
  
  <!-- 声音传播圆弧 -->
  <path d="M 20 13 Q 22 16 20 19" stroke="white" stroke-width="1.5" fill="none" opacity="0.8"/>
  <path d="M 12 13 Q 10 16 12 19" stroke="white" stroke-width="1.5" fill="none" opacity="0.8"/>
</svg>
